<?xml version="1.0" encoding="utf-8"?>
<!-- Generator: Adobe Illustrator 24.1.1, SVG Export Plug-In . SVG Version: 6.00 Build 0)  -->
<svg version="1.1" id="Layer_1" xmlns="http://www.w3.org/2000/svg" xmlns:xlink="http://www.w3.org/1999/xlink" x="0px" y="0px"
	 viewBox="0 0 512 512" style="enable-background:new 0 0 512 512;" xml:space="preserve">
<g>
	<path d="M501.8,231.4L280.6,10.2C274.3,3.9,265.6,0,256,0c-9.6,0-18.3,3.9-24.6,10.2L10.2,231.4C3.9,237.7,0,246.4,0,256
		c0,9.6,3.9,18.3,10.2,24.6l221.2,221.2c6.3,6.3,15,10.2,24.6,10.2c9.6,0,18.3-3.9,24.6-10.2l221.2-221.2c6.3-6.3,10.2-15,10.2-24.6
		C512,246.4,508.1,237.7,501.8,231.4z M256,477.3L256,477.3L34.8,256l131.7-131.7l48.4,48.4c-1.4,4.1-2.3,8.9-2.3,13.8
		c0,17.7,10.6,32.9,25.7,39.7l0.3,0.1v94.2c-15.4,6.9-26,22.1-26,39.8c0,24,19.4,43.5,43.5,43.5s43.5-19.4,43.5-43.5
		c0-17.7-10.6-33-25.8-39.7l-0.3-0.1v-89.2l37.1,37c-1.4,4.1-2.3,8.9-2.3,13.8c0,24,19.5,43.5,43.5,43.5c24,0,43.5-19.5,43.5-43.5
		c0-24-19.5-43.5-43.5-43.5c-6.5,0-12.6,1.4-18.2,4l0.3-0.1l-38.1-38.1c2.4-5.3,3.8-11.4,3.8-17.9c0-24-19.4-43.5-43.5-43.5
		c-6.5,0-12.6,1.4-18.2,4l0.3-0.1L191,99.7l65-65L477.2,256L256,477.3z"/>
</g>
</svg>
