<?xml version="1.0" encoding="utf-8"?>
<!-- Generator: Adobe Illustrator 21.0.0, SVG Export Plug-In . SVG Version: 6.00 Build 0)  -->
<svg version="1.1" id="Layer_1" xmlns="http://www.w3.org/2000/svg" xmlns:xlink="http://www.w3.org/1999/xlink" x="0px" y="0px"
	 viewBox="0 0 512 512" style="enable-background:new 0 0 512 512;" xml:space="preserve">
<g>
	<path d="M135.6,247.3c-13.6,0-23-6-23.8-15.4H80.6c0.5,24.8,21.1,40.2,53.7,40.2c33.8,0,54.3-16.2,54.3-43.1
		c0-20.5-11.4-31.9-36.9-36.9l-16.6-3.2c-13.6-2.7-19.3-6.8-19.3-13.8c0-8.6,7.6-14,19.1-14s20.2,6.3,20.9,15.4H186
		c-0.5-23.8-21.4-40.2-51.6-40.2c-31.1,0-51.3,16.5-51.3,41.7c0,20.3,12.1,33.1,35.7,37.6l17,3.4c14.7,3,20.3,6.8,20.3,13.9
		C156.2,241.3,147.9,247.3,135.6,247.3z"/>
	<path d="M493.7,43.4H18.3C8.2,43.4,0,51.6,0,61.7v283.4c0,10.1,8.2,18.3,18.3,18.3h217.1v64h-98.3c-5,0-9.1,4.1-9.1,9.1V464
		c0,2.5,2.1,4.6,4.6,4.6h246.9c2.5,0,4.6-2.1,4.6-4.6v-27.4c0-5-4.1-9.1-9.1-9.1h-98.3v-64h217.1c10.1,0,18.3-8.2,18.3-18.3V61.7
		C512,51.6,503.8,43.4,493.7,43.4z M470.9,322.3H41.1V84.6h429.7V322.3z"/>
	<path d="M436.9,241.5h-54.7V139.7h-32.8v128.9h87.5V241.5z M266.2,272.1c8.1,0,15.5-1.1,22.3-3.3l7.6,11.6h30.5l-15.8-24.9
		c12.1-11.4,18.9-29.2,18.9-51.3c0-41.9-24.7-67.9-63.4-67.9s-63.5,25.9-63.5,67.9C202.7,246.2,227.3,272.1,266.2,272.1z
		 M266.2,163.5c18.1,0,30.1,15.8,30.1,40.6c0,9.5-2.1,17.5-5.7,23.1l-3-3.9h-27.9l13.4,20.7c-2.2,0.5-4.6,0.8-7,0.8
		c-18.1,0-30.2-15.7-30.2-40.7C236.1,179.2,248.1,163.5,266.2,163.5z"/>
</g>
</svg>
